<?xml version="1.0" encoding="iso-8859-1"?>
<!-- Generator: Adobe Illustrator 19.1.0, SVG Export Plug-In . SVG Version: 6.00 Build 0)  -->
<svg version="1.1" id="champage" fill="white" width="110px" height="110px" xmlns="http://www.w3.org/2000/svg" xmlns:xlink="http://www.w3.org/1999/xlink" x="0px" y="0px"
	 viewBox="0 0 299.417 299.417" style="enable-background:new 0 0 299.417 299.417;" xml:space="preserve">
<g>
	<g>
		<path d="M286.178,286.939h-15.622v-61.589c16.84-5.243,28.861-31.403,28.861-65.031c0-8.261-0.794-16.364-2.33-23.989
			c-0.583-2.913-3.124-5.031-6.09-5.031h-53.38c-2.966,0-5.507,2.118-6.09,5.031c-1.536,7.679-2.33,15.728-2.33,23.989
			c0,33.575,12.021,59.788,28.861,65.031v61.536h-15.622c-3.442,0-6.249,2.807-6.249,6.249s2.807,6.249,6.249,6.249h43.689
			c3.442,0,6.249-2.807,6.249-6.249C292.374,289.693,289.62,286.939,286.178,286.939z M241.694,160.373
			c0-5.666,0.424-11.174,1.218-16.523l0,0h42.895c0.794,5.349,1.165,10.909,1.165,16.523c0,31.509-11.915,53.486-22.665,53.486
			S241.694,191.882,241.694,160.373z"/>
		<path d="M211.085,68.44l12.657-12.921c0.583-0.318,1.165-0.688,1.642-1.218l20.971-21.395c2.383-2.436,2.383-6.302,0-8.738
			L224.536,1.82c-2.33-2.383-6.567-2.383-8.897,0l-20.971,21.395l0,0l-14.087,14.404c-9.744,9.956-21.659,17.37-35.375,22.03
			c-15.569,5.296-29.126,13.769-40.3,25.154L53.91,136.86H6.249c-3.442,0-6.249,2.807-6.249,6.249v30.026
			c0,3.442,2.807,6.249,6.249,6.249h1.695l38.129,115.711c0.847,2.542,3.23,4.289,5.931,4.289h107.608
			c2.701,0,5.084-1.748,5.931-4.289l38.182-115.711h1.695c3.442,0,6.249-2.807,6.249-6.249v-30.026c0-3.442-2.807-6.249-6.249-6.249
			h-32.833c7.308-9.479,12.974-20.282,16.84-32.251C194.033,90.576,201.288,78.396,211.085,68.44z M220.035,15.112l13.133,13.398
			l-12.233,12.498l-9.109-9.32l-3.972-4.078L220.035,15.112z M155.163,286.939H56.505L21.024,179.384h169.567L155.163,286.939z
			 M199.17,166.886H12.498v-17.529h40.988c0.794,0.318,1.642,0.53,2.489,0.53h102.206c0.847,0,1.748-0.212,2.489-0.53h38.5
			L199.17,166.886L199.17,166.886z M156.116,136.86H71.333l42.418-43.372c9.797-9.956,21.659-17.37,35.375-22.03
			c15.569-5.296,29.126-13.769,40.3-25.101l9.638-9.797l12.868,13.133l-9.797,10.009c-11.121,11.386-19.382,25.207-24.572,41.094
			C173.063,114.777,165.807,126.904,156.116,136.86z"/>
	</g>
</g>
<g>
</g>
<g>
</g>
<g>
</g>
<g>
</g>
<g>
</g>
<g>
</g>
<g>
</g>
<g>
</g>
<g>
</g>
<g>
</g>
<g>
</g>
<g>
</g>
<g>
</g>
<g>
</g>
<g>
</g>
</svg>
