<?xml version="1.0" encoding="UTF-8" standalone="no"?>
<svg
   xmlns:dc="http://purl.org/dc/elements/1.1/"
   xmlns:cc="http://creativecommons.org/ns#"
   xmlns:rdf="http://www.w3.org/1999/02/22-rdf-syntax-ns#"
   xmlns:svg="http://www.w3.org/2000/svg"
   xmlns="http://www.w3.org/2000/svg"
   xmlns:sodipodi="http://sodipodi.sourceforge.net/DTD/sodipodi-0.dtd"
   xmlns:inkscape="http://www.inkscape.org/namespaces/inkscape"
   sodipodi:docname="EXPORT 64px.svg"
   inkscape:version="1.0 (4035a4fb49, 2020-05-01)"
   id="svg831"
   version="1.1"
   viewBox="0 0 22.577778 22.577778"
   height="64pt"
   width="64pt"
   inkscape:export-filename="C:\Users\RainBoyz\Desktop\Oktober 2\1 - Coffee Machine.png"
   inkscape:export-xdpi="576"
   inkscape:export-ydpi="576">
  <defs
     id="defs825">
    <pattern
       y="0"
       x="0"
       height="6"
       width="6"
       patternUnits="userSpaceOnUse"
       id="EMFhbasepattern" />
    <pattern
       y="0"
       x="0"
       height="6"
       width="6"
       patternUnits="userSpaceOnUse"
       id="EMFhbasepattern-9" />
    <pattern
       y="0"
       x="0"
       height="6"
       width="6"
       patternUnits="userSpaceOnUse"
       id="EMFhbasepattern-0" />
    <pattern
       y="0"
       x="0"
       height="6"
       width="6"
       patternUnits="userSpaceOnUse"
       id="EMFhbasepattern-7" />
    <pattern
       y="0"
       x="0"
       height="6"
       width="6"
       patternUnits="userSpaceOnUse"
       id="EMFhbasepattern-2" />
    <pattern
       y="0"
       x="0"
       height="6"
       width="6"
       patternUnits="userSpaceOnUse"
       id="EMFhbasepattern-98" />
    <pattern
       y="0"
       x="0"
       height="6"
       width="6"
       patternUnits="userSpaceOnUse"
       id="EMFhbasepattern-6" />
    <pattern
       y="0"
       x="0"
       height="6"
       width="6"
       patternUnits="userSpaceOnUse"
       id="EMFhbasepattern-01" />
    <pattern
       y="0"
       x="0"
       height="6"
       width="6"
       patternUnits="userSpaceOnUse"
       id="EMFhbasepattern-07" />
    <pattern
       y="0"
       x="0"
       height="6"
       width="6"
       patternUnits="userSpaceOnUse"
       id="EMFhbasepattern-8" />
    <pattern
       y="0"
       x="0"
       height="6"
       width="6"
       patternUnits="userSpaceOnUse"
       id="EMFhbasepattern-4" />
    <pattern
       y="0"
       x="0"
       height="6"
       width="6"
       patternUnits="userSpaceOnUse"
       id="EMFhbasepattern-40" />
    <pattern
       y="0"
       x="0"
       height="6"
       width="6"
       patternUnits="userSpaceOnUse"
       id="EMFhbasepattern-08" />
    <pattern
       y="0"
       x="0"
       height="6"
       width="6"
       patternUnits="userSpaceOnUse"
       id="EMFhbasepattern-04" />
    <pattern
       y="0"
       x="0"
       height="6"
       width="6"
       patternUnits="userSpaceOnUse"
       id="EMFhbasepattern-014" />
    <pattern
       y="0"
       x="0"
       height="6"
       width="6"
       patternUnits="userSpaceOnUse"
       id="EMFhbasepattern-27" />
    <pattern
       y="0"
       x="0"
       height="6"
       width="6"
       patternUnits="userSpaceOnUse"
       id="EMFhbasepattern-09" />
    <pattern
       y="0"
       x="0"
       height="6"
       width="6"
       patternUnits="userSpaceOnUse"
       id="EMFhbasepattern-5" />
    <pattern
       y="0"
       x="0"
       height="6"
       width="6"
       patternUnits="userSpaceOnUse"
       id="EMFhbasepattern-018" />
  </defs>
  <sodipodi:namedview
     inkscape:document-rotation="0"
     inkscape:snap-global="true"
     inkscape:snap-nodes="false"
     inkscape:bbox-nodes="true"
     inkscape:snap-bbox="true"
     showguides="true"
     inkscape:snap-midpoints="true"
     inkscape:snap-smooth-nodes="true"
     inkscape:snap-intersection-paths="true"
     inkscape:object-paths="true"
     inkscape:showpageshadow="false"
     inkscape:pagecheckerboard="true"
     inkscape:window-maximized="1"
     inkscape:window-y="-8"
     inkscape:window-x="-8"
     inkscape:window-height="715"
     inkscape:window-width="1366"
     units="pt"
     showgrid="false"
     inkscape:current-layer="layer1"
     inkscape:document-units="pt"
     inkscape:cy="47.993125"
     inkscape:cx="-3.7356417"
     inkscape:zoom="4.350364"
     inkscape:pageshadow="2"
     inkscape:pageopacity="0.0"
     borderopacity="1.0"
     bordercolor="#666666"
     pagecolor="#ffffff"
     id="base">
    <inkscape:grid
       id="grid1378"
       type="xygrid" />
    <sodipodi:guide
       inkscape:locked="false"
       id="guide1380"
       orientation="78.000048,0"
       position="0.97013831,21.607643" />
    <sodipodi:guide
       inkscape:locked="false"
       id="guide1382"
       orientation="0,78.000005"
       position="0.97013831,0.97013129" />
    <sodipodi:guide
       inkscape:locked="false"
       id="guide1384"
       orientation="-78.000048,0"
       position="21.607639,0.97013129" />
    <sodipodi:guide
       inkscape:locked="false"
       id="guide1386"
       orientation="0,-78.000005"
       position="21.607639,21.607643" />
  </sodipodi:namedview>
  <metadata
     id="metadata828">
    <rdf:RDF>
      <cc:Work
         rdf:about="">
        <dc:format>image/svg+xml</dc:format>
        <dc:type
           rdf:resource="http://purl.org/dc/dcmitype/StillImage" />
        <dc:title></dc:title>
      </cc:Work>
    </rdf:RDF>
  </metadata>
  <g
     transform="translate(0,-274.42223)"
     id="layer1"
     inkscape:groupmode="layer"
     inkscape:label="Icon">
    <path
       id="path1108"
       style="color:#000000;font-style:normal;font-variant:normal;font-weight:normal;font-stretch:normal;font-size:medium;line-height:normal;font-family:sans-serif;font-variant-ligatures:normal;font-variant-position:normal;font-variant-caps:normal;font-variant-numeric:normal;font-variant-alternates:normal;font-variant-east-asian:normal;font-feature-settings:normal;font-variation-settings:normal;text-indent:0;text-align:start;text-decoration:none;text-decoration-line:none;text-decoration-style:solid;text-decoration-color:#000000;letter-spacing:normal;word-spacing:normal;text-transform:none;writing-mode:lr-tb;direction:ltr;text-orientation:mixed;dominant-baseline:auto;baseline-shift:baseline;text-anchor:start;white-space:normal;shape-padding:0;shape-margin:0;inline-size:0;clip-rule:nonzero;display:inline;overflow:visible;visibility:visible;opacity:1;isolation:auto;mix-blend-mode:normal;color-interpolation:sRGB;color-interpolation-filters:linearRGB;solid-color:#000000;solid-opacity:1;vector-effect:none;fill:#000000;fill-opacity:1;fill-rule:nonzero;stroke:none;stroke-width:0.665725;stroke-linecap:round;stroke-linejoin:round;stroke-miterlimit:4;stroke-dasharray:none;stroke-dashoffset:0;stroke-opacity:1;color-rendering:auto;image-rendering:auto;shape-rendering:auto;text-rendering:auto;enable-background:accumulate;stop-color:#000000;stop-opacity:1"
       d="m 12.626513,275.39242 a 0.33289532,0.33289532 0 0 0 -0.304908,0.18529 l -0.625416,1.26774 -1.399061,0.20349 a 0.33289532,0.33289532 0 0 0 -0.183984,0.5682 l 1.012238,0.98623 -0.239244,1.39256 a 0.33289532,0.33289532 0 0 0 0.48304,0.35107 l 1.250833,-0.65793 1.251484,0.65793 a 0.33289532,0.33289532 0 0 0 0.48304,-0.35107 l -0.239244,-1.39256 1.012239,-0.98623 a 0.33289532,0.33289532 0 0 0 -0.183985,-0.5682 l -1.399061,-0.20349 -0.626067,-1.26774 a 0.33289532,0.33289532 0 0 0 -0.291904,-0.18529 z m -4.8850107,1.36656 a 0.33289532,0.33289532 0 0 0 -0.3049074,0.18529 l -0.4037245,0.81785 -0.9023683,0.13132 a 0.33289532,0.33289532 0 0 0 -0.1839839,0.5682 l 0.6527212,0.63648 -0.154729,0.89781 a 0.33289532,0.33289532 0 0 0 0.4830402,0.35107 l 0.8074501,-0.42452 0.8074514,0.42452 a 0.33289532,0.33289532 0 0 0 0.4830389,-0.35107 l -0.1547277,-0.89781 0.6527212,-0.63648 a 0.33289532,0.33289532 0 0 0 -0.183984,-0.5682 l -0.9023683,-0.13132 -0.4037257,-0.81785 a 0.33289532,0.33289532 0 0 0 -0.2919042,-0.18529 z m 9.7706717,0 a 0.33289532,0.33289532 0 0 0 -0.304907,0.18529 l -0.403725,0.81785 -0.903019,0.13132 a 0.33289532,0.33289532 0 0 0 -0.183984,0.5682 l 0.653372,0.63648 -0.154729,0.89781 a 0.33289532,0.33289532 0 0 0 0.48304,0.35107 l 0.807451,-0.42452 0.80745,0.42452 a 0.33289532,0.33289532 0 0 0 0.48304,-0.35107 l -0.154729,-0.89781 0.652722,-0.63648 a 0.33289532,0.33289532 0 0 0 -0.183984,-0.5682 l -0.902369,-0.13132 -0.403725,-0.81785 a 0.33289532,0.33289532 0 0 0 -0.291904,-0.18529 z m -8.8858571,4.10811 c -0.1175532,0 -0.2289092,0.0243 -0.3341624,0.0624 v 14.43464 H 7.6264313 V 294.3662 H 6.9607068 c -0.363732,0 -0.6657308,-0.30198 -0.6657245,-0.66573 v -0.66573 c -6.3e-6,-0.36373 0.3019774,-0.66571 0.6657245,-0.66571 h 0.6657245 v -0.66638 H 6.9607068 c -0.363732,0 -0.6657308,-0.30198 -0.6657245,-0.66572 v -0.66573 c -6.3e-6,-0.36374 0.3019774,-0.66573 0.6657245,-0.66573 H 7.6264313 V 289.0391 H 6.9607068 c -0.363732,0 -0.6657308,-0.30198 -0.6657245,-0.66572 v -0.66572 c -6.3e-6,-0.36374 0.3019774,-0.66573 0.6657245,-0.66573 h 0.6657245 v -1.32948 H 5.9627711 c -0.5475385,0 -0.9972815,0.44973 -0.9972853,0.99728 v 8.32285 c 0,0.11663 0.023727,0.22723 0.061104,0.33157 H 2.9676611 v -1.36591 c 0.7568253,-0.15573 1.3320977,-0.82838 1.3321002,-1.6292 7.6e-6,-0.91524 -0.7510261,-1.66366 -1.6662603,-1.66366 -0.9152341,0 -1.66366757,0.74842 -1.66366091,1.66366 3.28e-6,0.80174 0.57445991,1.47513 1.33209711,1.62986 v 1.36525 H 1.302053 a 0.33286223,0.33286223 0 0 0 -0.33221291,0.33416 0.33286223,0.33286223 0 0 0 0.33221291,0.33156 h 19.971722 a 0.33286223,0.33286223 0 0 0 0.334162,-0.33156 0.33286223,0.33286223 0 0 0 -0.334162,-0.33416 h -1.061649 c 0.0374,-0.1043 0.06107,-0.21497 0.06112,-0.33157 l 0.0026,-5.6593 c 1.85e-4,-0.54754 -0.449733,-0.99989 -0.997287,-0.99989 h -1.66622 v 1.3321 h 0.665723 c 0.363746,0 0.666378,0.30198 0.666375,0.66572 v 0.66573 c 3e-6,0.36375 -0.302644,0.66572 -0.666375,0.66572 h -0.665723 v 0.66638 h 0.665723 c 0.363746,0 0.666378,0.30199 0.666375,0.66572 v 0.66573 c 3e-6,0.36373 -0.302644,0.66572 -0.666375,0.66572 h -0.665723 v 0.99794 h -0.665724 v -14.43529 c -0.104331,-0.0376 -0.214967,-0.0618 -0.331562,-0.0618 z m 0.9979357,1.33146 h 0.6657244 c 0.363744,0 0.665729,0.30197 0.665724,0.66571 v 0.66639 c 5e-6,0.36373 -0.301995,0.66571 -0.665724,0.66571 H 9.6242526 c -0.3637294,0 -0.6657282,-0.30198 -0.6657232,-0.66571 v -0.66639 c -5e-6,-0.36374 0.3019775,-0.66571 0.6657232,-0.66571 z m 2.6635474,0 h 0.665723 c 0.363746,0 0.665731,0.30197 0.665726,0.66571 v 0.66639 c 5e-6,0.36373 -0.301995,0.66571 -0.665726,0.66571 H 12.2878 c -0.36373,0 -0.66573,-0.30198 -0.665725,-0.66571 v -0.66639 c -5e-6,-0.36374 0.30198,-0.66571 0.665725,-0.66571 z m 2.663547,0 h 0.665723 c 0.363745,0 0.66378,0.30197 0.663775,0.66571 v 0.66639 c 5e-6,0.36373 -0.300045,0.66571 -0.663775,0.66571 h -0.665723 c -0.363729,0 -0.665729,-0.30198 -0.665724,-0.66571 v -0.66639 c -5e-6,-0.36374 0.301978,-0.66571 0.665724,-0.66571 z m -5.3270944,0.66571 v 0.66639 h 0.6657244 v -0.66639 z m 2.6635474,0 v 0.66639 h 0.665723 v -0.66639 z m 2.663547,0 v 0.66639 h 0.665723 v -0.66639 z m -5.3270944,1.99783 h 0.6657244 c 0.363744,0 0.665729,0.30198 0.665724,0.66573 v 0.66637 c 5e-6,0.36374 -0.301995,0.66573 -0.665724,0.66573 H 9.6242526 c -0.3637294,0 -0.6657282,-0.30199 -0.6657232,-0.66573 v -0.66637 c -5e-6,-0.36375 0.3019775,-0.66573 0.6657232,-0.66573 z m 2.6635474,0 h 0.665723 c 0.363746,0 0.665731,0.30198 0.665726,0.66573 v 0.66637 c 5e-6,0.36374 -0.301995,0.66573 -0.665726,0.66573 H 12.2878 c -0.36373,0 -0.66573,-0.30199 -0.665725,-0.66573 v -0.66637 c -5e-6,-0.36375 0.30198,-0.66573 0.665725,-0.66573 z m 2.663547,0 h 0.665723 c 0.363745,0 0.66378,0.30198 0.663775,0.66573 v 0.66637 c 5e-6,0.36374 -0.300045,0.66573 -0.663775,0.66573 h -0.665723 c -0.363729,0 -0.665729,-0.30199 -0.665724,-0.66573 v -0.66637 c -5e-6,-0.36375 0.301978,-0.66573 0.665724,-0.66573 z m -5.3270944,0.66573 v 0.66637 h 0.6657244 v -0.66637 z m 2.6635474,0 v 0.66637 h 0.665723 v -0.66637 z m 2.663547,0 v 0.66637 h 0.665723 v -0.66637 z m -5.3270944,1.99781 h 0.6657244 c 0.363744,0 0.665729,0.30004 0.665724,0.66378 v 0.66573 c 5e-6,0.36373 -0.301995,0.66571 -0.665724,0.66571 H 9.6242526 c -0.3637294,0 -0.6657282,-0.30198 -0.6657232,-0.66571 v -0.66573 c -5e-6,-0.36374 0.3019775,-0.66378 0.6657232,-0.66378 z m 2.6635474,0 h 0.665723 c 0.363746,0 0.665731,0.30004 0.665726,0.66378 v 0.66573 c 5e-6,0.36373 -0.301995,0.66571 -0.665726,0.66571 H 12.2878 c -0.36373,0 -0.66573,-0.30198 -0.665725,-0.66571 v -0.66573 c -5e-6,-0.36374 0.30198,-0.66378 0.665725,-0.66378 z m 2.663547,0 h 0.665723 c 0.363745,0 0.66378,0.30004 0.663775,0.66378 v 0.66573 c 5e-6,0.36373 -0.300045,0.66571 -0.663775,0.66571 h -0.665723 c -0.363729,0 -0.665729,-0.30198 -0.665724,-0.66571 v -0.66573 c -5e-6,-0.36374 0.301978,-0.66378 0.665724,-0.66378 z m -7.9906402,0.18204 v 0.66572 h 0.6657245 v -0.66572 z m 2.6635458,0.48174 v 0.66573 h 0.6657244 v -0.66573 z m 2.6635474,0 v 0.66573 h 0.665723 v -0.66573 z m 2.663547,0 v 0.66573 h 0.665723 v -0.66573 z m -5.3270944,1.99717 h 0.6657244 c 0.363744,0 0.665729,0.30263 0.665724,0.66637 v 0.66573 c 5e-6,0.36374 -0.301995,0.66573 -0.665724,0.66573 H 9.6242526 c -0.3637294,0 -0.6657282,-0.30199 -0.6657232,-0.66573 v -0.66573 c -5e-6,-0.36374 0.3019775,-0.66637 0.6657232,-0.66637 z m 5.3270944,0 h 0.665723 c 0.363745,0 0.66378,0.30263 0.663775,0.66637 v 0.66573 c 5e-6,0.36374 -0.300045,0.66573 -0.663775,0.66573 h -0.665723 c -0.363729,0 -0.665729,-0.30199 -0.665724,-0.66573 v -0.66573 c -5e-6,-0.36374 0.301978,-0.66637 0.665724,-0.66637 z m -7.9906402,0.18463 v 0.66573 h 0.6657245 v -0.66573 z m 10.6515862,0 v 0.66573 h 0.665724 v -0.66573 z m -7.9880404,0.48174 v 0.66573 h 0.6657244 v -0.66573 z m 2.3293844,0 h 1.331448 a 0.33286223,0.33286223 0 0 1 0.334164,0.33417 0.33286223,0.33286223 0 0 1 -0.334164,0.33156 h -1.331448 a 0.33286223,0.33286223 0 0 1 -0.331562,-0.33156 0.33286223,0.33286223 0 0 1 0.331562,-0.33417 z m 2.99771,0 v 0.66573 h 0.665723 v -0.66573 z m -2.860535,1.3386 h 1.057098 c 0.547566,0 0.999887,0.45298 0.999887,1.00054 v 2.17206 h -0.665725 v -2.17206 c 0,-0.18778 -0.146388,-0.33417 -0.334162,-0.33417 h -1.057098 c -0.187773,0 -0.331562,0.14639 -0.331562,0.33417 v 2.17206 h -0.665723 v -2.17206 c 0,-0.54756 0.44972,-1.00054 0.997285,-1.00054 z m -5.1301052,0.84321 v 0.66573 h 0.6657245 v -0.66573 z m 10.6515862,0 v 0.66573 h 0.665724 v -0.66573 z" />
  </g>
</svg>
